<svg width="20" height="20" viewBox="0 0 20 20" fill="none" xmlns="http://www.w3.org/2000/svg">
<g clip-path="url(#clip0_0_33)">
<path d="M19.174 9.71009C19.174 8.93122 19.1121 8.36285 18.9782 7.77344H10.2725V11.2889H15.3825C15.2796 12.1625 14.7232 13.4782 13.4869 14.3623L13.4695 14.48L16.2221 16.6585L16.4128 16.6779C18.1643 15.0254 19.174 12.594 19.174 9.71009Z" fill="#4285F4"/>
<path d="M10.2726 18.9724C12.7761 18.9724 14.8779 18.1303 16.413 16.6778L13.487 14.3622C12.7041 14.9201 11.6532 15.3095 10.2726 15.3095C7.82061 15.3095 5.73948 13.6571 4.99762 11.373L4.88888 11.3825L2.02669 13.6454L1.98926 13.7517C3.51404 16.8462 6.64606 18.9724 10.2726 18.9724Z" fill="#34A853"/>
<path d="M4.9974 11.3731C4.80165 10.7837 4.68836 10.1521 4.68836 9.49955C4.68836 8.84693 4.80165 8.21543 4.9871 7.62602L4.98191 7.50049L2.08385 5.20117L1.98903 5.24725C1.3606 6.53136 1 7.97337 1 9.49955C1 11.0257 1.3606 12.4677 1.98903 13.7518L4.9974 11.3731Z" fill="#FBBC05"/>
<path d="M10.2726 3.69016C12.0138 3.69016 13.1882 4.45851 13.8579 5.1006L16.4748 2.49029C14.8676 0.964108 12.7761 0.0273438 10.2726 0.0273438C6.64606 0.0273438 3.51404 2.15346 1.98926 5.2479L4.98732 7.62667C5.73949 5.34267 7.82061 3.69016 10.2726 3.69016Z" fill="#EB4335"/>
</g>
<defs>
<clipPath id="clip0_0_33">
<rect x="1" width="18.1739" height="19" rx="9.08696" fill="white"/>
</clipPath>
</defs>
</svg>
